<svg xmlns="http://www.w3.org/2000/svg" width="129" height="129.015" viewBox="0 0 129 129.015">
  <path id="Icon_simple-deno" data-name="Icon simple-deno" d="M59.423.041c-.3.032-1.269.145-2.139.22A64.959,64.959,0,0,0,22.7,15.156a84.152,84.152,0,0,0-7.552,7.552A64.8,64.8,0,0,0,.3,56.706a102.245,102.245,0,0,0,0,15.61,64.883,64.883,0,0,0,14.846,34,84.153,84.153,0,0,0,7.552,7.552,64.8,64.8,0,0,0,34,14.846,102.245,102.245,0,0,0,15.61,0,64.883,64.883,0,0,0,34-14.846,84.155,84.155,0,0,0,7.552-7.552,64.8,64.8,0,0,0,14.846-34,102.249,102.249,0,0,0,0-15.61,64.883,64.883,0,0,0-14.846-34,84.154,84.154,0,0,0-7.552-7.552A64.9,64.9,0,0,0,72.4.32a63.673,63.673,0,0,0-7.187-.3q-2.894-.052-5.789.016Zm.79,6.853c0,1.854.129,5.886.3,9.708.1,1.871.2,4.553.253,5.95.172,4.951.7,17.942.779,19.1l.081,1.156-.715-.081a2.709,2.709,0,0,1-.822-.172,17.452,17.452,0,0,1-.22-2.446Q59.148,24.73,58.552,9.346l-.1-3.521L58.9,5.76c.237-.032.634-.081.887-.1l.43-.016V6.884ZM75.4,6.513c.016.016.064,4.805.113,10.643.065,5.854.145,11.105.188,11.675a2.457,2.457,0,0,1-.048,1.129,2.327,2.327,0,0,1-.855,0l-.731-.065-.113-4.617-.172-6.3c-.129-2.806-.237-12.342-.145-12.578.064-.172.237-.188.9-.081.462.1.839.172.855.188ZM38.7,11.829c.1.145.839,8.885,1.763,20.324.3,3.886.6,7.439.65,7.885.081.812.065.839-.446,1.156a2.79,2.79,0,0,1-.634.317,2.351,2.351,0,0,1-.188-.919c-.22-2.064-1.08-12.024-1.682-19.227-.349-4.236-.667-8.025-.715-8.439-.081-.7-.065-.763.349-.984.505-.269.8-.317.9-.113Zm43.674,3.188c.446.161.489.237.586,1.145a78.863,78.863,0,0,1-.064,9.17,2.224,2.224,0,0,1-1.489-.839q-.129-2.5-.1-5c0-5.155-.064-4.854,1.064-4.472Zm-29.3.747c0,.43.113,2.79.237,5.284l.333,7.015c.113,2.763.145,2.666-.919,2.731-.521.016-.521.016-.554-.779-.032-.446-.113-1.822-.2-3.1s-.269-4.015-.4-6.106-.285-4.171-.333-4.617c-.1-.8-.081-.822.349-.984a3.317,3.317,0,0,1,.984-.172c.505-.016.505-.016.505.731Zm44.007,2.172.538.22.113,2.123c.048,1.156.081,3.666.048,5.553l-.048,3.456-.667-.333-.667-.317-.048-5.268c-.032-2.9-.016-5.364.016-5.472.064-.237.064-.237.715.032Zm-28.967,2.08c.1.1.317,7.789.333,11.691l.016,2.349-.747-.113a6.989,6.989,0,0,1-.8-.113C66.873,33.8,66.4,22.042,66.4,20.9V19.73l.812.1a3.994,3.994,0,0,1,.9.188Zm36.535,1.123c.188.22.22,3.7.269,22.861.048,22.006.048,22.576-.237,22.576a1.059,1.059,0,0,1-.554-.2c-.237-.172-.269-2.1-.349-20.893q-.042-11.5-.188-22.99l-.1-2.284.462.333a5.141,5.141,0,0,1,.7.6ZM90.422,24.4a7.711,7.711,0,0,1,.172,2c.081,3.5.1,25,.016,25.065a1.669,1.669,0,0,1-.634-.172l-.57-.237V24.068l.446.1a1.728,1.728,0,0,1,.57.237Zm-43.787.887c.048.43.129,1.4.172,2.188l.253,3.935c.188,2.79.161,2.967-.747,2.967-.478,0-.538-.048-.6-.521-.161-.935-.715-8.74-.634-8.869a3.515,3.515,0,0,1,1.285-.43c.1-.016.22.317.269.731ZM20.393,29.325l.779,7.821c.269,2.618.495,4.838.495,4.934,0,.188-1.22.8-1.349.667q-.939-7.365-1.666-14.755c0-.382,1.22-1.984,1.381-1.806.048.032.2,1.446.366,3.139Zm62.2,1.666.462.269.016,3.429c.016,1.871.048,3.967.048,4.65.032,1.43-.145,1.666-1,1.365l-.489-.172V39.167c0-.763-.048-2.967-.113-4.918l-.1-3.521h.366A2.2,2.2,0,0,1,82.6,31ZM27.359,37.146l1.048,11.422.538,5.87-.618.618-.6.618-.113-1.252c-.065-.7-.382-3.935-.715-7.2s-.812-8.009-1.048-10.535L25.4,32.115l.618-.57c.554-.521.618-.538.731-.253.065.161.333,2.79.6,5.854ZM15.475,39.07c.349,3.123,1.269,11.438,2.064,18.464s1.537,13.8,1.682,15.072c.129,1.269.349,3.188.478,4.284.22,1.854.22,1.983-.032,2.172-.382.285-.538.253-.538-.081,0-.145-.145-1.349-.317-2.65-.285-2.172-.763-5.854-1.822-14.121-.22-1.666-.65-4.983-.951-7.375Q15.024,47.121,14.056,39.4a37.835,37.835,0,0,1-.414-4.285,5.7,5.7,0,0,1,1.145-1.822c.032.048.349,2.634.7,5.773Zm-4.854,6.837.984,7.74c.3,2.349.683,5.284.855,6.5l.3,2.22-.333.285c-.188.161-.382.22-.446.161a6.292,6.292,0,0,1-.285-1.4c-.1-.7-.683-4.773-1.317-9.041L9.25,44.607l.366-1.08a3.892,3.892,0,0,1,.446-1.064,29.628,29.628,0,0,1,.554,3.44Zm87.095-2.08c.22.22.253,1.2.253,8.487V60.55h-.446c-.968,0-.951.237-1.016-8.772l-.048-8.2h.505a1.2,1.2,0,0,1,.747.253ZM62.992,46.666a30.976,30.976,0,0,1,9.8,3.123,18.72,18.72,0,0,1,5.171,3.87A31.911,31.911,0,0,1,85.2,63.479c2.774,5.682,3.854,10.707,5.219,24.194.618,6.042,1.43,17.007,1.6,21.5.048,1.3.161,3.44.253,4.757.172,2.79.382,2.413-2.08,3.6a53.151,53.151,0,0,1-11.025,3.854,52.287,52.287,0,0,1-13.959,1.731l-3.806.016.032-1.822c0-1,.1-3.333.188-5.155a202.927,202.927,0,0,0-.237-26.177,57.286,57.286,0,0,0-1.414-8.821c-.081-.2.285-.382,1.854-.919,2.87-1,5.364-2.252,5.741-2.87.683-1.172-.538-2.854-2.1-2.854a7.223,7.223,0,0,0-1.822.618A60.005,60.005,0,0,1,48.866,79.11a41.894,41.894,0,0,1-10.31-.43,30.748,30.748,0,0,1-7.138-2.714c-2.87-1.489-4.633-3.472-5.155-5.821a14.288,14.288,0,0,1,.161-5.235,16.938,16.938,0,0,1,2.521-5.187C33.466,53.772,42.8,48.617,52.36,46.811a35.648,35.648,0,0,1,10.627-.145Zm48.941.495c.57.237.634.3.634.839.032,4.332-.065,14.228-.145,14.642-.016.145-.839.161-1.188.032-.22-.081-.253-.935-.253-7.934,0-5.015.064-7.837.161-7.837a4.168,4.168,0,0,1,.8.253Zm6.929,8.708.57.237-.113,13.137c-.129,16.738-.145,17.228-.747,18.674-.984,2.365-.935,2.838-.839-7.536.032-5.187.113-10.439.145-11.659s.065-4.666.081-7.665a33.507,33.507,0,0,1,.161-5.424,3.774,3.774,0,0,1,.747.237Zm-95.4,3.951a3.5,3.5,0,0,1-.4,2.43l-.505,1.08-.188-1.586c-.3-2.537-.3-2.65.3-3.032a1.28,1.28,0,0,1,.6-.285,5.839,5.839,0,0,1,.188,1.4Zm-9.8,9.568c.145,1.3,1.252,9.933,1.822,14.169.855,6.552.919,7.488.538,7.09q-.475-2.438-.8-4.9c-2.473-17.1-2.456-16.991-2.252-17.12.43-.285.57-.129.683.763Zm11.422,7.262c.1.4.554,4.7.554,5.219,0,.446-.57.855-.822.6a19.068,19.068,0,0,1-.446-2.983l-.4-3.634-.1-.8.554.634a3.526,3.526,0,0,1,.65.951Zm12.8,5.983c.172.161.285.8.43,2.5.237,3.1.269,2.854-.382,2.854-.667,0-.65.048-.871-2.747-.22-2.838-.22-2.806.2-2.806a1.328,1.328,0,0,1,.618.188Zm12.562.237c.032.161.113,1.113.172,2.112s.188,3.252.317,5c.446,6.407.462,7.219.188,7.219-.3,0-.333-.237-.683-4.757q-.232-3.278-.521-6.552a30.862,30.862,0,0,1-.188-3.2c.172-.188.634-.048.715.188ZM20.619,85.915c.1.145.7,5.219,1.446,12.153.22,2.1.446,4.107.489,4.488l.081.683-.4-.253a.822.822,0,0,1-.414-.779c0-1-.683-7.584-1.2-11.61-.3-2.284-.538-4.3-.538-4.488,0-.333.382-.462.538-.188Zm91.551,6.633-.113,6.633-.4.586c-.9,1.333-.855,1.586-.812-5.837l.032-6.805.586-.6a3.086,3.086,0,0,1,.7-.586c.048,0,.048,2.983,0,6.617ZM97.5,103.062c.081,9.219.064,9.933-.188,10.218-.161.172-.3.285-.349.237-.113-.129-.269-20.227-.145-20.34a.5.5,0,0,1,.366-.081c.2.048.253,1.172.317,9.96ZM45.684,96.752c.113.984.505,5.7.667,7.918.1,1.489.1,1.537-.253,1.65a.515.515,0,0,1-.478-.032c-.113-.113-.462-3.634-.887-9.057l-.113-1.3h.489c.462,0,.489.032.57.822ZM33.213,102.3a1.644,1.644,0,0,1,.188.9c0,.414.188,2.553.4,4.773.6,6.074.65,6.9.382,6.741-.414-.237-.779-.6-.7-.7a10.857,10.857,0,0,0-.161-1.763c-.113-.919-.253-2.413-.317-3.333s-.2-2.6-.333-3.73c-.3-2.774-.285-3.1.065-3.1a.77.77,0,0,1,.478.188Zm7.5,10.675c.048.349.145,1.65.2,2.886.113,2.381.065,2.553-.586,2.064-.188-.145-.317-.747-.505-2.553-.333-3.268-.349-3.139.269-3.08.462.048.521.113.618.683ZM35.051,54.266a2.11,2.11,0,1,0,2.634,3.064,2.107,2.107,0,0,0-2.634-3.064Zm10.756,1.521a2.435,2.435,0,0,0,0,4.123,2.345,2.345,0,1,0,0-4.128Z" transform="translate(-0.002 0.003)" fill="#fff"/>
</svg>
